<svg xmlns="http://www.w3.org/2000/svg" width="200" height="60" viewBox="0 0 200 60">
  <path d="M35.5 47.4c-8.3 6.1-20.3 9.4-30.7 9.4-14.5 0-27.5-5.4-37.4-14.3-.8-.7-.1-1.7.8-1.1 10.7 6.2 23.9 10 37.5 10 9.2 0 19.3-1.9 28.6-5.9 1.4-.6 2.6.9 1.2 1.9" fill="#FF9900"/>
  <path d="M37.1 45.4c-1.1-1.4-7.1-.7-9.8-.3-.8.1-1-.6-.2-1.2 4.8-3.4 12.7-2.4 13.6-1.3.9 1.1-.2 9.1-4.8 12.9-.7.6-1.4.3-1.1-.5 1-2.5 3.3-8.1 2.3-9.6" fill="#FF9900"/>
  <path d="M67.9 41.9h-3c-.2 0-.4.2-.4.4v11.5c0 .2.2.4.4.4h2.8c.2 0 .4-.2.4-.4V42.3c0-.2-.2-.4-.4-.4" fill="#221F1F"/>
  <path d="M67.9 36.4h-3c-.2 0-.4.2-.4.4v2.8c0 .2.2.4.4.4h3c.2 0 .4-.2.4-.4v-2.8c0-.2-.2-.4-.4-.4" fill="#221F1F"/>
  <path d="M61.3 41.9h-3c-.2 0-.4.2-.4.4v1.7h-2.8v-1.7c0-.2-.2-.4-.4-.4h-3c-.2 0-.4.2-.4.4v11.5c0 .2.2.4.4.4h3c.2 0 .4-.2.4-.4v-6.7h2.8v6.7c0 .2.2.4.4.4h3c.2 0 .4-.2.4-.4V42.3c0-.2-.2-.4-.4-.4" fill="#221F1F"/>
  <path d="M78.7 41.9h-3c-.2 0-.4.2-.4.4v8.1c0 .2-.2.4-.4.4h-2.8c-.2 0-.4-.2-.4-.4v-8.1c0-.2-.2-.4-.4-.4h-3c-.2 0-.4.2-.4.4v11.5c0 .2.2.4.4.4h10.4c.2 0 .4-.2.4-.4V42.3c0-.2-.2-.4-.4-.4" fill="#221F1F"/>
</svg> 