<svg xmlns="http://www.w3.org/2000/svg" width="100" height="120" viewBox="0 0 100 120">
  <path d="M75.5 38.9c-.1-11.2 9.2-16.6 9.6-16.8-5.2-7.6-13.3-8.6-16.2-8.8-6.9-.7-13.5 4.1-17 4.1-3.5 0-8.9-4-14.6-3.9-7.5.1-14.4 4.4-18.3 11.1-7.8 13.5-2 33.5 5.6 44.4 3.7 5.4 8.1 11.4 13.9 11.2 5.6-.2 7.7-3.6 14.4-3.6 6.7 0 8.6 3.6 14.5 3.5 6-.1 9.8-5.4 13.4-10.8 4.2-6.2 6-12.2 6.1-12.5-.1-.1-11.7-4.5-11.8-17.9M63.9 11.7c3.1-3.8 5.2-9 4.6-14.2-4.4.2-9.8 3-13 6.7-2.8 3.3-5.3 8.5-4.6 13.5 4.9.4 9.9-2.2 13-6" fill="#000000"/>
</svg> 