<?xml version="1.0" encoding="UTF-8"?>
<svg width="300" height="100" viewBox="0 0 300 100" fill="none" xmlns="http://www.w3.org/2000/svg">
  <g transform="translate(40,20)">
    <path d="M103.798 11.902H47.6c-12.01 0-21.983 9.973-21.983 21.983 0 12.01 9.973 21.983 21.983 21.983h56.198c12.01 0 21.983-9.973 21.983-21.983 0-12.01-9.973-21.983-21.983-21.983z" fill="#00832D"/>
    <path d="M138.582 20.695l-12.801 12.801v0.778l12.801 12.801V20.695z" fill="#00832D"/>
    <path fill-rule="evenodd" clip-rule="evenodd" d="M47.6 23.717h56.198c5.496 0 10.168 4.672 10.168 10.168 0 5.496-4.672 10.168-10.168 10.168H47.6c-5.496 0-10.168-4.672-10.168-10.168 0-5.496 4.672-10.168 10.168-10.168z" fill="white"/>
  </g>
</svg> 