<svg xmlns="http://www.w3.org/2000/svg" width="200" height="80" viewBox="0 0 200 80">
  <path d="M196.7 37.2l-5.5-3.4a4.8 4.8 0 01-2.3-4.1V16.9c0-1.7-1.4-3.1-3.1-3.1h-12.8c-1.7 0-3.1 1.4-3.1 3.1v31.4c0 1.7 1.4 3.1 3.1 3.1h31.4c1.7 0 3.1-1.4 3.1-3.1V41.3c0-1.7-.9-3.2-2.3-4.1h-8.5z" fill="#0081FB"/>
  <path d="M160.7 37.2l-5.5-3.4a4.8 4.8 0 01-2.3-4.1V16.9c0-1.7-1.4-3.1-3.1-3.1h-12.8c-1.7 0-3.1 1.4-3.1 3.1v31.4c0 1.7 1.4 3.1 3.1 3.1h31.4c1.7 0 3.1-1.4 3.1-3.1V41.3c0-1.7-.9-3.2-2.3-4.1h-8.5z" fill="#00B5F8"/>
  <path d="M124.7 37.2l-5.5-3.4a4.8 4.8 0 01-2.3-4.1V16.9c0-1.7-1.4-3.1-3.1-3.1h-12.8c-1.7 0-3.1 1.4-3.1 3.1v31.4c0 1.7 1.4 3.1 3.1 3.1h31.4c1.7 0 3.1-1.4 3.1-3.1V41.3c0-1.7-.9-3.2-2.3-4.1h-8.5z" fill="#00D8A3"/>
</svg> 