<?xml version="1.0" encoding="UTF-8"?>
<svg width="300" height="100" viewBox="0 0 300 100" fill="none" xmlns="http://www.w3.org/2000/svg">
  <g transform="translate(40,20)">
    <path fill-rule="evenodd" clip-rule="evenodd" d="M75.837 33.885c0 11.069-8.97 20.039-20.039 20.039-11.069 0-20.039-8.97-20.039-20.039 0-11.069 8.97-20.039 20.039-20.039 11.069 0 20.039 8.97 20.039 20.039zm9.341 0c0 16.183-13.197 29.38-29.38 29.38S26.418 50.068 26.418 33.885c0-16.183 13.197-29.38 29.38-29.38s29.38 13.197 29.38 29.38z" fill="#00AFF0"/>
    <path d="M55.798 13.846c11.069 0 20.039 8.97 20.039 20.039 0 11.069-8.97 20.039-20.039 20.039-11.069 0-20.039-8.97-20.039-20.039 0-11.069 8.97-20.039 20.039-20.039z" fill="white"/>
    <path d="M55.798 23.717c5.496 0 10.168 4.672 10.168 10.168 0 5.496-4.672 10.168-10.168 10.168-5.496 0-10.168-4.672-10.168-10.168 0-5.496 4.672-10.168 10.168-10.168z" fill="#00AFF0"/>
  </g>
</svg> 