<?xml version="1.0" encoding="UTF-8"?>
<svg width="300" height="100" viewBox="0 0 300 100" fill="none" xmlns="http://www.w3.org/2000/svg">
  <g transform="translate(40,20)">
    <path d="M70.277 23.717v17.398c0 3.477-2.803 6.28-6.28 6.28H47.6c-3.477 0-6.28-2.803-6.28-6.28V23.717c0-3.477 2.803-6.28 6.28-6.28h16.397c3.477 0 6.28 2.803 6.28 6.28z" fill="#7B83EB"/>
    <path d="M109.873 25.837v13.158c0 4.173-3.364 7.537-7.537 7.537H85.178c-4.173 0-7.537-3.364-7.537-7.537V25.837c0-4.173 3.364-7.537 7.537-7.537h17.158c4.173 0 7.537 3.364 7.537 7.537z" fill="#5059C9"/>
    <circle cx="55.798" cy="13.159" r="7.537" fill="#7B83EB"/>
    <circle cx="85.178" cy="11.902" r="8.793" fill="#5059C9"/>
  </g>
</svg> 