<?xml version="1.0" encoding="UTF-8"?>
<svg width="300" height="100" viewBox="0 0 300 100" fill="none" xmlns="http://www.w3.org/2000/svg">
  <g transform="translate(40,20)">
    <path fill-rule="evenodd" clip-rule="evenodd" d="M55.798 11.902c12.01 0 21.983 9.973 21.983 21.983 0 12.01-9.973 21.983-21.983 21.983-12.01 0-21.983-9.973-21.983-21.983 0-12.01 9.973-21.983 21.983-21.983zM85.178 33.885c0-16.183-13.197-29.38-29.38-29.38S26.418 17.702 26.418 33.885c0 16.183 13.197 29.38 29.38 29.38s29.38-13.197 29.38-29.38z" fill="#00953A"/>
    <path d="M55.798 11.902l5.496 5.496-5.496-5.496zm21.983 21.983l-5.496-5.496 5.496 5.496zm-21.983 21.983l-5.496-5.496 5.496 5.496zm-21.983-21.983l5.496-5.496-5.496 5.496zm0 0l5.496 5.496-5.496-5.496zm29.38-29.38l5.496 5.496-5.496-5.496zm-29.38 0l-5.496 5.496 5.496-5.496zm0 58.76l-5.496-5.496 5.496 5.496z" fill="#00953A"/>
  </g>
</svg> 