<?xml version="1.0" encoding="UTF-8"?>
<svg width="300" height="100" viewBox="0 0 300 100" xmlns="http://www.w3.org/2000/svg">
  <defs>
    <linearGradient id="zoomGradient" x1="23.666%" x2="76.334%" y1="95.6118%" y2="4.3882%">
      <stop offset=".00006%" stop-color="#0845BF"/>
      <stop offset="19.11%" stop-color="#0950DE"/>
      <stop offset="38.23%" stop-color="#0B59F6"/>
      <stop offset="50%" stop-color="#0B5CFF"/>
      <stop offset="67.32%" stop-color="#0E5EFE"/>
      <stop offset="77.74%" stop-color="#1665FC"/>
      <stop offset="86.33%" stop-color="#246FF9"/>
      <stop offset="93.88%" stop-color="#387FF4"/>
      <stop offset="100%" stop-color="#4F90EE"/>
    </linearGradient>
    <style>
      @keyframes rotate {
        from { transform: rotate(0deg); }
        to { transform: rotate(360deg); }
      }
      .rotating-circle {
        transform-origin: 128px 128px;
        animation: rotate 8s linear infinite;
      }
      .pulse {
        animation: pulse 2s ease-in-out infinite;
      }
      @keyframes pulse {
        0% { opacity: 0.4; }
        50% { opacity: 0.8; }
        100% { opacity: 0.4; }
      }
    </style>
  </defs>
  <g transform="translate(40,10) scale(0.3)">
    <path fill="url(#zoomGradient)" d="M256 128c0 13.568-1.024 27.136-3.328 40.192-6.912 43.264-41.216 77.568-84.48 84.48C155.136 254.976 141.568 256 128 256c-13.568 0-27.136-1.024-40.192-3.328-43.264-6.912-77.568-41.216-84.48-84.48C1.024 155.136 0 141.568 0 128c0-13.568 1.024-27.136 3.328-40.192 6.912-43.264 41.216-77.568 84.48-84.48C100.864 1.024 114.432 0 128 0c13.568 0 27.136 1.024 40.192 3.328 43.264 6.912 77.568 41.216 84.48 84.48C254.976 100.864 256 114.432 256 128Z"/>
    <circle cx="128" cy="128" r="120" fill="none" stroke="url(#zoomGradient)" stroke-width="2" stroke-dasharray="30 15" class="rotating-circle"/>
    <path fill="#FFF" d="M204.032 207.872H75.008c-8.448 0-16.64-4.608-20.48-12.032-4.608-8.704-2.816-19.2 4.096-26.112l89.856-89.856H83.968c-17.664 0-32-14.336-32-32h118.784c8.448 0 16.64 4.608 20.48 12.032 4.608 8.704 2.816 19.2-4.096 26.112l-89.6 90.112h74.496c17.664 0 32 14.08 32 31.744Z"/>
  </g>
</svg> 